<svg xmlns="http://www.w3.org/2000/svg" id="Layer_3" data-name="Layer 3" viewBox="0 0 64 64" width="512" height="512"><path d="M36.721,15H34.5a.5.5,0,0,1-.5-.5A2.5,2.5,0,0,0,31.5,12H28.4a9.407,9.407,0,0,0-9.308,10.733l.779,5.449A3.989,3.989,0,0,0,21,36h1.2A10.021,10.021,0,0,0,27,42.647v2.572l-3.188.8-8,1.067A9.027,9.027,0,0,0,8,56v6a1,1,0,0,0,1,1H55a1,1,0,0,0,1-1V56a9.027,9.027,0,0,0-7.811-8.921l-8-1.067L37,45.219V42.647A10.021,10.021,0,0,0,41.8,36H43a3.989,3.989,0,0,0,1.18-7.8l.659-3.294A8.279,8.279,0,0,0,36.721,15ZM21,34a2,2,0,0,1,0-4h1v4Zm6.781,13.085,2.7,2.023-3.141,3.141-1.955-4.563ZM30.82,58h2.36l.6,3H30.22Zm2.562-2H30.618l-1.4-2.8L32,50.414,34.783,53.2ZM10,56a7.022,7.022,0,0,1,6.074-6.939l7.306-.974,2.7,6.3a1,1,0,0,0,.73.588A1.016,1.016,0,0,0,27,55a1,1,0,0,0,.707-.293l.019-.019,1.226,2.453L28.18,61H10Zm44,0v5H35.82l-.772-3.859,1.226-2.453.019.019A1,1,0,0,0,37,55a1.016,1.016,0,0,0,.189-.018,1,1,0,0,0,.73-.588l2.7-6.3,7.306.974A7.022,7.022,0,0,1,54,56ZM36.663,52.249l-3.141-3.141,2.7-2.023,2.4.6ZM35,45.5l-3,2.25L29,45.5V43.539a9.992,9.992,0,0,0,6,0ZM40,34a8,8,0,0,1-16,0V28.071a3.969,3.969,0,0,1,1.172-2.828L28,22.415a1.414,1.414,0,0,1,2,0l3.222,3.222a2.576,2.576,0,0,0,3.556,0,.52.52,0,0,1,.673-.048L39.6,27.2a1.007,1.007,0,0,1,.4.8Zm5-2a2,2,0,0,1-2,2H42V30h1A2,2,0,0,1,45,32Zm-2.122-7.49L42.18,28H42a3.017,3.017,0,0,0-1.2-2.4l-2.149-1.612a2.526,2.526,0,0,0-3.287.234.517.517,0,0,1-.728,0L31.414,21a3.5,3.5,0,0,0-4.828,0l-2.828,2.828A5.957,5.957,0,0,0,22,28h-.136l-.793-5.549A7.526,7.526,0,0,1,21,21.4,7.411,7.411,0,0,1,28.4,14h3.1a.5.5,0,0,1,.5.5A2.5,2.5,0,0,0,34.5,17h2.221a6.278,6.278,0,0,1,6.157,7.51Z"></path><path d="M62.957,7.71A1,1,0,0,0,62,7H55.721L53.948,1.684a1,1,0,0,0-1.9,0L50.279,7H44a1,1,0,0,0-.555,1.832l5.365,3.576-1.758,5.276a1,1,0,0,0,1.573,1.1L53,15.281l4.375,3.5a1,1,0,0,0,1.573-1.1L57.19,12.408l5.365-3.576A1,1,0,0,0,62.957,7.71Zm-7.512,3.458a1,1,0,0,0-.393,1.148L55.98,15.1l-2.355-1.885a1,1,0,0,0-1.25,0L50.02,15.1l.928-2.788a1,1,0,0,0-.393-1.148L47.3,9H51a1,1,0,0,0,.948-.684L53,5.162l1.052,3.154A1,1,0,0,0,55,9h3.7Z"></path><path d="M20,7H13.721L11.948,1.684a1,1,0,0,0-1.9,0L8.279,7H2a1,1,0,0,0-.555,1.832L6.81,12.408,5.052,17.684a1,1,0,0,0,1.573,1.1L11,15.281l4.375,3.5a1,1,0,0,0,1.573-1.1L15.19,12.408l5.365-3.576A1,1,0,0,0,20,7Zm-6.555,4.168a1,1,0,0,0-.393,1.148L13.98,15.1l-2.355-1.885a1,1,0,0,0-1.25,0L8.02,15.1l.928-2.788a1,1,0,0,0-.393-1.148L5.3,9H9a1,1,0,0,0,.948-.684L11,5.162l1.052,3.154A1,1,0,0,0,13,9h3.7Z"></path></svg>