<svg xmlns="http://www.w3.org/2000/svg" xmlns:xlink="http://www.w3.org/1999/xlink" id="Capa_1" x="0px" y="0px" viewBox="0 0 512 512" style="enable-background:new 0 0 512 512;" xml:space="preserve">
<g>
	<g>
		<path d="M262,99.999c-5.52,0-10,4.48-10,10c0,5.52,4.48,10,10,10s10-4.48,10-10C272,104.479,267.52,99.999,262,99.999z"></path>
	</g>
</g>
<g>
	<g>
		<path d="M504.424,210.298l-37.31-9.326c-5.098-21.758-13.603-42.372-25.349-61.438l19.729-32.879    c2.361-3.935,1.741-8.972-1.503-12.217l-42.43-42.43c-3.246-3.245-8.281-3.866-12.217-1.504l-32.879,19.729    c-19.066-11.746-39.681-20.251-61.439-25.349l-9.325-37.311C300.589,3.123,296.589,0,292,0h-60c-4.588,0-8.588,3.123-9.701,7.574    l-9.438,37.741c-21.584,5.219-41.929,13.719-60.639,25.335l-33.566-20.145c-3.937-2.363-8.973-1.742-12.217,1.503l-42.43,42.43    c-3.245,3.245-3.865,8.282-1.503,12.218l20.471,34.107c-11.335,18.664-19.575,38.737-24.56,59.826l-38.842,9.709    c-4.452,1.112-7.575,5.112-7.575,9.701v60c0,4.589,3.123,8.588,7.574,9.701l39.275,9.82c5.072,20.795,13.215,40.465,24.262,58.655    L28.79,412.497c-0.002,0.002-0.003,0.003-0.005,0.005l-14.131,14.14c-9.448,9.438-14.653,21.995-14.653,35.356    s5.204,25.918,14.647,35.349C24.091,506.796,36.647,512,50.001,512c13.354,0,25.91-5.204,35.349-14.649L99.5,483.21l0.001-0.001    l0.001-0.001l54.324-54.324c18.205,11.051,37.874,19.193,58.653,24.263l9.821,39.275c1.113,4.451,5.113,7.574,9.701,7.574h60    c4.589,0,8.589-3.123,9.702-7.575l9.708-38.844c21.097-4.991,41.168-13.228,59.826-24.551l34.11,20.465    c3.935,2.36,8.97,1.74,12.216-1.504l42.43-42.43c3.245-3.245,3.864-8.281,1.504-12.216l-20.146-33.576    c11.615-18.7,20.116-39.045,25.335-60.631l37.741-9.438c4.452-1.113,7.574-5.112,7.574-9.701v-60    C511.998,215.41,508.875,211.41,504.424,210.298z M71.208,483.208C65.542,488.878,58.011,492,50.001,492    c-8.01,0-15.541-3.122-21.213-8.798c-5.667-5.659-8.787-13.19-8.787-21.205s3.121-15.546,8.794-21.212l7.068-7.073l42.424,42.422    L71.208,483.208z M145.378,409.051c-0.015,0.015-0.03,0.03-0.045,0.045L92.43,461.996l-42.428-42.428l52.907-52.906    c0.014-0.014,0.028-0.027,0.041-0.041l43.046-43.046c0.017-0.017,0.035-0.034,0.052-0.052l34.742-34.741    c8.866,18.545,23.89,33.568,42.426,42.43l-34.74,34.74c-0.017,0.016-0.032,0.033-0.049,0.049L145.378,409.051z M286.487,238.161    c1.198-3.594,0.263-7.555-2.416-10.233s-6.639-3.611-10.233-2.416l-81.778,27.256c-0.036-0.921-0.06-1.844-0.06-2.769    c0-38.598,31.402-70,70-70c38.598,0,70,31.402,70,70s-31.402,70-70,70c-0.925,0-1.848-0.024-2.769-0.06L286.487,238.161z     M239.98,314.447l-1.488,1.488c-19.75-7.031-35.397-22.678-42.428-42.428l1.488-1.488l63.638-21.21L239.98,314.447z M492,272.19    L492,272.19l-36.137,9.036c-3.713,0.929-6.57,3.895-7.359,7.639c-4.95,23.489-14.12,45.422-27.254,65.188    c-2.135,3.214-2.231,7.37-0.246,10.679l19.323,32.206l-31.388,31.388l-32.675-19.604c-3.273-1.963-7.378-1.894-10.583,0.184    c-19.832,12.852-41.524,21.749-64.476,26.445c-3.771,0.771-6.764,3.639-7.697,7.372l-9.317,37.275h-44.384l-9.417-37.656    c-0.926-3.706-3.883-6.56-7.619-7.355c-19.223-4.092-37.448-11.047-54.341-20.708l28.946-28.946    c20.079,9.603,42.26,14.665,64.623,14.665c82.71,0,149.999-67.29,149.999-149.999c0-31.075-9.458-60.909-27.354-86.277    c-17.487-24.791-41.666-43.52-69.922-54.161c-5.169-1.949-10.937,0.665-12.883,5.834c-1.946,5.169,0.666,10.937,5.834,12.883    c50.437,18.995,84.323,67.911,84.323,121.721c0,71.683-58.318,129.999-129.999,129.999c-16.992,0-33.858-3.374-49.48-9.808    l31.913-31.913c5.748,1.143,11.634,1.721,17.566,1.721c49.626,0,90-40.374,90-89.999S311.624,160,261.998,160    c-49.626,0-89.999,40.374-89.999,89.999c0,5.934,0.578,11.82,1.721,17.566l-31.913,31.913c-6.434-15.621-9.808-32.488-9.808-49.48    c0-53.811,33.887-102.726,84.323-121.721c5.168-1.946,7.78-7.714,5.834-12.883c-1.946-5.168-7.713-7.782-12.883-5.834    c-28.256,10.642-52.435,29.37-69.922,54.161c-17.895,25.368-27.354,55.202-27.354,86.277c0,22.363,5.062,44.544,14.664,64.623    l-28.947,28.947c-9.656-16.878-16.611-35.104-20.706-54.343c-0.795-3.736-3.649-6.692-7.355-7.619l-37.656-9.416v-44.384    l37.275-9.317c3.735-0.934,6.603-3.928,7.373-7.7c4.686-22.938,13.585-44.63,26.452-64.47c2.078-3.205,2.149-7.313,0.184-10.588    l-19.608-32.672l31.386-31.387l32.195,19.321c3.309,1.986,7.464,1.891,10.678-0.244c19.779-13.136,41.716-22.306,65.2-27.255    c3.745-0.789,6.71-3.646,7.639-7.359L239.808,20h44.385l8.937,35.755c0.935,3.74,3.937,6.61,7.716,7.376    c23.603,4.781,45.797,13.938,65.968,27.213c3.209,2.111,7.346,2.198,10.643,0.222l31.485-18.894l31.387,31.388l-18.893,31.485    c-1.978,3.296-1.891,7.433,0.222,10.644c13.275,20.17,22.431,42.364,27.212,65.967c0.765,3.779,3.635,6.781,7.376,7.716    L492,227.809V272.19z"></path>
	</g>
</g>
<g>
</g>
<g>
</g>
<g>
</g>
<g>
</g>
<g>
</g>
<g>
</g>
<g>
</g>
<g>
</g>
<g>
</g>
<g>
</g>
<g>
</g>
<g>
</g>
<g>
</g>
<g>
</g>
<g>
</g>
</svg>